<?xml version="1.0" encoding="UTF-8"?>
<!DOCTYPE svg PUBLIC "-//W3C//DTD SVG 1.1//EN" "http://www.w3.org/Graphics/SVG/1.1/DTD/svg11.dtd">
<!-- Creator: CorelDRAW -->
<svg xmlns="http://www.w3.org/2000/svg" xml:space="preserve" width="28.9617mm" height="18.1012mm" version="1.1" style="shape-rendering:geometricPrecision; text-rendering:geometricPrecision; image-rendering:optimizeQuality; fill-rule:evenodd; clip-rule:evenodd"
viewBox="0 0 89.39 55.87"
 xmlns:xlink="http://www.w3.org/1999/xlink"
 xmlns:xodm="http://www.corel.com/coreldraw/odm/2003">
 <defs>
  <style type="text/css">
   <![CDATA[
    .fil0 {fill:#FEFEFE;fill-rule:nonzero}
   ]]>
  </style>
 </defs>
 <g id="Слой_x0020_1">
  <metadata id="CorelCorpID_0Corel-Layer"/>
  <g id="_2738883283808">
   <g>
    <path class="fil0" d="M89.39 50.28l-2.79 0 0 0 -0 -0.15 -0.01 -0.14 -0.02 -0.14 -0.02 -0.14 -0.03 -0.14 -0.04 -0.13 -0.04 -0.13 -0.05 -0.13 -0.06 -0.12 -0.06 -0.12 -0.07 -0.12 -0.07 -0.11 -0.08 -0.11 -0.08 -0.11 -0.09 -0.1 -0.09 -0.1 -0.1 -0.09 -0.1 -0.09 -0.11 -0.08 -0.11 -0.08 -0.11 -0.07 -0.12 -0.07 -0.12 -0.06 -0.12 -0.06 -0.13 -0.05 -0.13 -0.04 -0.13 -0.04 -0.14 -0.03 -0.14 -0.02 -0.14 -0.02 -0.14 -0.01 -0.15 -0 0 -2.79 0.29 0.01 0.28 0.02 0.28 0.04 0.28 0.05 0.27 0.06 0.27 0.07 0.26 0.09 0.25 0.1 0.25 0.11 0.24 0.12 0.23 0.13 0.23 0.15 0.22 0.16 0.21 0.17 0.2 0.18 0.19 0.18 0.18 0.19 0.18 0.2 0.17 0.21 0.16 0.22 0.15 0.23 0.13 0.23 0.12 0.24 0.11 0.25 0.1 0.25 0.09 0.26 0.07 0.27 0.06 0.27 0.05 0.28 0.04 0.28 0.02 0.28 0.01 0.29 0 0zm0 0c0,0.77 -0.63,1.4 -1.4,1.4 -0.77,0 -1.4,-0.63 -1.4,-1.4l2.79 0zm-5.59 5.59l0 -2.79 0 0 0.15 -0 0.14 -0.01 0.14 -0.02 0.14 -0.02 0.14 -0.03 0.13 -0.04 0.13 -0.04 0.13 -0.05 0.12 -0.06 0.12 -0.06 0.12 -0.07 0.11 -0.07 0.11 -0.08 0.11 -0.08 0.1 -0.09 0.1 -0.09 0.09 -0.1 0.09 -0.1 0.08 -0.11 0.08 -0.11 0.07 -0.11 0.07 -0.12 0.06 -0.12 0.06 -0.12 0.05 -0.13 0.04 -0.13 0.04 -0.13 0.03 -0.14 0.02 -0.14 0.02 -0.14 0.01 -0.14 0 -0.15 2.79 0 -0.01 0.29 -0.02 0.28 -0.04 0.28 -0.05 0.28 -0.06 0.27 -0.07 0.27 -0.09 0.26 -0.1 0.25 -0.11 0.25 -0.12 0.24 -0.13 0.23 -0.15 0.23 -0.16 0.22 -0.17 0.21 -0.18 0.2 -0.18 0.19 -0.19 0.18 -0.2 0.18 -0.21 0.17 -0.22 0.16 -0.23 0.15 -0.23 0.13 -0.24 0.12 -0.25 0.11 -0.25 0.1 -0.26 0.09 -0.27 0.07 -0.27 0.06 -0.28 0.05 -0.28 0.04 -0.28 0.02 -0.29 0.01 0 0zm0 0c-0.77,0 -1.4,-0.63 -1.4,-1.4 0,-0.77 0.63,-1.4 1.4,-1.4l0 2.79zm-78.21 -2.79l78.21 0 0 2.79 -78.21 -0 0 -2.79zm0 2.79c-0.77,0 -1.4,-0.63 -1.4,-1.4 0,-0.77 0.63,-1.4 1.4,-1.4l0 2.79zm-5.59 -5.59l2.79 0 0 0 0 0.15 0.01 0.14 0.02 0.14 0.02 0.14 0.03 0.14 0.04 0.13 0.04 0.13 0.05 0.13 0.06 0.12 0.06 0.12 0.07 0.12 0.07 0.11 0.08 0.11 0.08 0.11 0.09 0.1 0.09 0.1 0.1 0.09 0.1 0.09 0.11 0.08 0.11 0.08 0.11 0.07 0.12 0.07 0.12 0.06 0.12 0.06 0.13 0.05 0.13 0.04 0.13 0.04 0.14 0.03 0.14 0.02 0.14 0.02 0.14 0.01 0.15 0 0 2.79 -0.29 -0.01 -0.28 -0.02 -0.28 -0.04 -0.28 -0.05 -0.27 -0.06 -0.27 -0.07 -0.26 -0.09 -0.25 -0.1 -0.25 -0.11 -0.24 -0.12 -0.23 -0.13 -0.23 -0.15 -0.22 -0.16 -0.21 -0.17 -0.2 -0.18 -0.19 -0.18 -0.18 -0.19 -0.18 -0.2 -0.17 -0.21 -0.16 -0.22 -0.15 -0.23 -0.13 -0.23 -0.12 -0.24 -0.11 -0.25 -0.1 -0.26 -0.09 -0.26 -0.07 -0.27 -0.06 -0.27 -0.05 -0.28 -0.04 -0.28 -0.02 -0.28 -0.01 -0.29 0 0zm0 0c0,-0.77 0.63,-1.4 1.4,-1.4 0.77,0 1.4,0.63 1.4,1.4l-2.79 0zm5.59 -5.59l0 2.79 0 0 -0.15 0 -0.14 0.01 -0.14 0.02 -0.14 0.02 -0.14 0.03 -0.13 0.04 -0.13 0.04 -0.13 0.05 -0.12 0.06 -0.12 0.06 -0.12 0.07 -0.11 0.07 -0.11 0.08 -0.11 0.08 -0.1 0.09 -0.1 0.09 -0.09 0.1 -0.09 0.1 -0.08 0.11 -0.08 0.11 -0.07 0.11 -0.07 0.12 -0.06 0.12 -0.06 0.12 -0.05 0.13 -0.04 0.13 -0.04 0.13 -0.03 0.14 -0.02 0.14 -0.02 0.14 -0.01 0.14 -0 0.15 -2.79 0 0.01 -0.29 0.02 -0.28 0.04 -0.28 0.05 -0.28 0.06 -0.27 0.07 -0.27 0.09 -0.26 0.1 -0.25 0.11 -0.25 0.12 -0.24 0.13 -0.23 0.15 -0.23 0.16 -0.22 0.17 -0.21 0.18 -0.2 0.18 -0.19 0.19 -0.18 0.2 -0.18 0.21 -0.17 0.22 -0.16 0.23 -0.14 0.23 -0.13 0.24 -0.12 0.25 -0.11 0.25 -0.1 0.26 -0.09 0.27 -0.07 0.27 -0.06 0.28 -0.05 0.28 -0.04 0.28 -0.02 0.29 -0.01 0 0zm0 0c0.77,0 1.4,0.63 1.4,1.4 0,0.77 -0.63,1.4 -1.4,1.4l0 -2.79zm78.21 -0l0 2.79 0 0 -4.89 0 -4.89 0 -4.89 0 -4.89 0 -4.89 0 -4.89 0 -4.89 0 -4.89 0 -4.89 0 -4.89 0 -4.89 0 -4.89 0 -4.89 0 -4.89 0 -4.89 0 -4.89 0 0 -2.79 4.89 0 4.89 0 4.89 0 4.89 0 4.89 0 4.89 0 4.89 0 4.89 0 4.89 -0 4.89 0 4.89 0 4.89 0 4.89 0 4.89 0 4.89 0 4.89 0 0 0zm0 0c0.77,0 1.4,0.63 1.4,1.4 0,0.77 -0.63,1.4 -1.4,1.4l0 -2.79z"/>
   </g>
   <g>
    <path class="fil0" d="M8.38 44.69c0,0.77 -0.63,1.4 -1.4,1.4 -0.77,0 -1.4,-0.63 -1.4,-1.4l2.79 0zm36.31 -39.11l0 2.79 0 0 -1.87 0.05 -1.84 0.14 -1.82 0.23 -1.79 0.32 -1.76 0.41 -1.72 0.49 -1.69 0.57 -1.65 0.65 -1.61 0.73 -1.57 0.8 -1.52 0.87 -1.47 0.94 -1.42 1.01 -1.37 1.08 -1.32 1.14 -1.26 1.2 -1.2 1.26 -1.14 1.32 -1.08 1.37 -1.01 1.42 -0.94 1.47 -0.87 1.52 -0.8 1.57 -0.73 1.61 -0.65 1.65 -0.57 1.69 -0.49 1.72 -0.41 1.76 -0.32 1.79 -0.23 1.82 -0.14 1.84 -0.05 1.87 -2.79 0 0.05 -2.01 0.15 -1.99 0.25 -1.96 0.34 -1.93 0.44 -1.89 0.53 -1.86 0.62 -1.82 0.7 -1.78 0.78 -1.73 0.86 -1.69 0.94 -1.64 1.02 -1.59 1.09 -1.53 1.16 -1.48 1.23 -1.42 1.29 -1.36 1.36 -1.29 1.42 -1.23 1.48 -1.16 1.53 -1.09 1.59 -1.02 1.64 -0.94 1.69 -0.86 1.73 -0.78 1.78 -0.7 1.82 -0.62 1.86 -0.53 1.89 -0.44 1.93 -0.34 1.96 -0.25 1.99 -0.15 2.01 -0.05 0 0zm0 0c0.77,0 1.4,0.63 1.4,1.4 0,0.77 -0.63,1.4 -1.4,1.4l0 -2.79zm26.34 10.2l-1.88 2.06 0 0 -0.61 -0.55 -0.62 -0.53 -0.64 -0.52 -0.65 -0.5 -0.66 -0.49 -0.67 -0.47 -0.68 -0.46 -0.69 -0.44 -0.7 -0.43 -0.71 -0.41 -0.72 -0.4 -0.73 -0.38 -0.74 -0.37 -0.75 -0.35 -0.76 -0.33 -0.77 -0.31 -0.78 -0.3 -0.79 -0.28 -0.8 -0.26 -0.8 -0.24 -0.81 -0.23 -0.82 -0.21 -0.83 -0.19 -0.83 -0.17 -0.84 -0.15 -0.85 -0.13 -0.85 -0.11 -0.86 -0.09 -0.87 -0.07 -0.87 -0.05 -0.88 -0.03 -0.88 -0.01 0 -2.79 0.95 0.01 0.94 0.03 0.94 0.06 0.93 0.08 0.92 0.1 0.92 0.12 0.91 0.14 0.9 0.16 0.9 0.18 0.89 0.2 0.88 0.22 0.87 0.24 0.87 0.26 0.86 0.28 0.85 0.3 0.84 0.32 0.83 0.34 0.82 0.36 0.81 0.38 0.8 0.39 0.79 0.41 0.78 0.43 0.77 0.45 0.76 0.46 0.75 0.48 0.73 0.49 0.72 0.51 0.71 0.53 0.7 0.54 0.68 0.56 0.67 0.57 0.66 0.59 0 0zm0 0c0.57,0.52 0.61,1.4 0.09,1.97 -0.52,0.57 -1.4,0.61 -1.97,0.09l1.88 -2.06zm5.12 5.67l-2.25 1.66 0 0 -0.13 -0.18 -0.13 -0.18 -0.13 -0.18 -0.14 -0.18 -0.14 -0.18 -0.14 -0.17 -0.14 -0.17 -0.14 -0.17 -0.14 -0.17 -0.14 -0.17 -0.14 -0.17 -0.14 -0.17 -0.15 -0.17 -0.15 -0.17 -0.15 -0.17 -0.15 -0.17 -0.15 -0.16 -0.15 -0.16 -0.15 -0.16 -0.15 -0.16 -0.15 -0.16 -0.15 -0.16 -0.16 -0.16 -0.16 -0.16 -0.16 -0.16 -0.16 -0.16 -0.16 -0.15 -0.16 -0.15 -0.16 -0.15 -0.16 -0.15 -0.16 -0.15 -0.16 -0.15 1.88 -2.06 0.18 0.16 0.17 0.16 0.17 0.16 0.17 0.16 0.17 0.17 0.17 0.17 0.17 0.17 0.17 0.17 0.17 0.17 0.17 0.17 0.17 0.17 0.16 0.17 0.16 0.17 0.16 0.17 0.16 0.18 0.16 0.18 0.16 0.18 0.16 0.18 0.16 0.18 0.16 0.18 0.16 0.18 0.15 0.18 0.15 0.18 0.15 0.18 0.15 0.19 0.15 0.19 0.15 0.19 0.15 0.19 0.15 0.19 0.15 0.19 0.14 0.19 0.14 0.19 0 0zm0 0c0.46,0.62 0.33,1.49 -0.29,1.95 -0.62,0.46 -1.49,0.33 -1.95,-0.29l2.25 -1.66zm7.65 23.23l-2.79 0 -0.01 -0.76 -0.02 -0.75 -0.04 -0.75 -0.05 -0.74 -0.07 -0.74 -0.08 -0.74 -0.1 -0.73 -0.11 -0.73 -0.13 -0.72 -0.14 -0.72 -0.15 -0.71 -0.17 -0.71 -0.18 -0.7 -0.19 -0.7 -0.21 -0.69 -0.22 -0.68 -0.23 -0.68 -0.25 -0.67 -0.26 -0.66 -0.27 -0.66 -0.29 -0.65 -0.3 -0.65 -0.31 -0.64 -0.32 -0.63 -0.33 -0.62 -0.35 -0.62 -0.36 -0.61 -0.37 -0.6 -0.38 -0.59 -0.39 -0.59 -0.4 -0.58 -0.41 -0.57 2.25 -1.66 0.44 0.61 0.43 0.62 0.42 0.63 0.41 0.64 0.4 0.65 0.38 0.66 0.37 0.66 0.36 0.67 0.35 0.68 0.33 0.69 0.32 0.69 0.31 0.7 0.29 0.71 0.28 0.72 0.27 0.72 0.25 0.73 0.24 0.74 0.22 0.74 0.21 0.75 0.2 0.75 0.18 0.76 0.17 0.77 0.15 0.77 0.14 0.78 0.12 0.78 0.1 0.79 0.09 0.79 0.07 0.8 0.06 0.8 0.04 0.8 0.02 0.81 0.01 0.81zm0 0c0,0.77 -0.63,1.4 -1.4,1.4 -0.77,0 -1.4,-0.63 -1.4,-1.4l2.79 0z"/>
   </g>
   <g>
    <path class="fil0" d="M28.14 20.48c-0.64,0.44 -1.51,0.27 -1.94,-0.36 -0.44,-0.64 -0.27,-1.51 0.36,-1.94l1.58 2.3zm16.55 -7.91l0 2.79 0 0 -0.57 0.01 -0.57 0.02 -0.57 0.03 -0.57 0.04 -0.56 0.05 -0.56 0.06 -0.56 0.07 -0.55 0.08 -0.55 0.09 -0.55 0.1 -0.54 0.11 -0.54 0.12 -0.54 0.13 -0.53 0.14 -0.53 0.15 -0.52 0.16 -0.52 0.17 -0.52 0.18 -0.51 0.19 -0.51 0.2 -0.5 0.21 -0.5 0.21 -0.49 0.22 -0.49 0.23 -0.48 0.24 -0.48 0.25 -0.47 0.26 -0.47 0.27 -0.46 0.27 -0.46 0.28 -0.45 0.29 -0.44 0.3 -1.58 -2.3 0.49 -0.33 0.49 -0.32 0.5 -0.31 0.51 -0.3 0.51 -0.29 0.52 -0.28 0.52 -0.27 0.53 -0.26 0.53 -0.25 0.54 -0.24 0.54 -0.24 0.55 -0.23 0.55 -0.22 0.56 -0.2 0.56 -0.2 0.57 -0.19 0.57 -0.17 0.58 -0.16 0.58 -0.15 0.59 -0.14 0.59 -0.13 0.6 -0.12 0.6 -0.11 0.6 -0.1 0.61 -0.09 0.61 -0.08 0.61 -0.07 0.62 -0.05 0.62 -0.04 0.62 -0.03 0.63 -0.02 0.63 -0.01 0 0zm0 0c0.77,0 1.4,0.63 1.4,1.4 0,0.77 -0.63,1.4 -1.4,1.4l0 -2.79zm29.89 20.33l-2.6 1.03 -0.42 -1.01 -0.46 -0.99 -0.49 -0.97 -0.53 -0.95 -0.56 -0.93 -0.59 -0.9 -0.62 -0.88 -0.66 -0.86 -0.69 -0.83 -0.72 -0.81 -0.75 -0.78 -0.77 -0.75 -0.8 -0.72 -0.83 -0.69 -0.85 -0.66 -0.88 -0.63 -0.9 -0.6 -0.92 -0.57 -0.95 -0.53 -0.97 -0.5 -0.99 -0.46 -1.01 -0.43 -1.02 -0.39 -1.04 -0.35 -1.06 -0.31 -1.08 -0.28 -1.09 -0.24 -1.11 -0.19 -1.12 -0.15 -1.13 -0.11 -1.15 -0.07 -1.16 -0.02 0 -2.79 1.27 0.02 1.25 0.07 1.24 0.12 1.23 0.17 1.21 0.21 1.2 0.26 1.18 0.3 1.16 0.35 1.14 0.39 1.12 0.43 1.1 0.47 1.08 0.51 1.06 0.55 1.03 0.58 1.01 0.62 0.99 0.66 0.96 0.69 0.93 0.73 0.9 0.76 0.88 0.79 0.85 0.82 0.82 0.85 0.78 0.88 0.75 0.91 0.72 0.94 0.68 0.96 0.65 0.99 0.61 1.01 0.58 1.04 0.54 1.06 0.5 1.08 0.46 1.11zm0 0c0.28,0.72 -0.07,1.53 -0.79,1.81 -0.72,0.28 -1.53,-0.07 -1.81,-0.79l2.6 -1.03z"/>
   </g>
   <g>
    <path class="fil0" d="M46.09 6.98c0,0.77 -0.63,1.4 -1.4,1.4 -0.77,0 -1.4,-0.63 -1.4,-1.4l2.79 0zm0 -5.59l0 5.59 -2.79 0 0 -5.59 2.79 0zm-2.79 0c0,-0.77 0.63,-1.4 1.4,-1.4 0.77,0 1.4,0.63 1.4,1.4l-2.79 0z"/>
   </g>
   <g>
    <path class="fil0" d="M40.5 2.79c-0.77,0 -1.4,-0.63 -1.4,-1.4 0,-0.77 0.63,-1.4 1.4,-1.4l0 2.79zm8.38 0l-8.38 0 0 -2.79 8.38 0 0 2.79zm0 -2.79c0.77,0 1.4,0.63 1.4,1.4 0,0.77 -0.63,1.4 -1.4,1.4l0 -2.79z"/>
   </g>
  </g>
 </g>
</svg>
