<svg width="74" height="74" viewBox="0 0 74 74" fill="none" xmlns="http://www.w3.org/2000/svg">
    <path fill-rule="evenodd" clip-rule="evenodd" d="M37 0C16.561 0 0 16.561 0 37C0 57.439 16.561 74 37 74C57.439 74 74 57.439 74 37C74 16.561 57.439 0 37 0ZM45.895 24.364C45.399 23.372 44.407 22.38 42.924 21.884L37.712 20.399L35.728 21.391C35.232 21.884 34.24 22.876 33.744 23.868L31.76 25.852L32.256 26.348C33.248 26.844 34.731 27.836 35.723 28.828L37.707 30.311L39.19 30.807C39.686 31.303 40.678 31.799 42.161 32.295L44.145 33.778L45.895 34.77C46.887 35.266 47.879 36.258 48.375 37.741L49.367 40.221L50.85 43.195L51.346 45.179C51.842 46.171 52.834 47.654 53.33 49.638L53.826 51.622L54.322 53.606C54.818 55.089 55.314 56.081 55.81 57.564L56.794 60.538L57.29 62.522C57.786 64.005 58.778 64.997 60.261 66.48L61.744 68.96C62.24 70.443 62.736 71.926 63.232 73.409L64.224 76.881C64.72 78.364 64.72 79.847 64.224 81.33L63.232 83.314C62.736 84.797 61.744 85.789 60.261 87.272L58.778 89.256C58.282 90.739 57.786 91.731 57.29 93.214L56.306 95.198C55.81 96.681 55.314 98.164 54.818 99.647L54.322 101.631C53.826 103.114 52.834 104.597 51.346 106.08L49.362 107.563C47.879 108.555 46.396 109.051 44.412 109.051L41.932 108.555C40.449 108.059 39.457 107.067 38.465 106.075L36.481 104.592L34.998 103.6C34.502 103.104 33.51 102.112 32.027 101.12L30.043 99.637C29.051 98.645 27.568 97.653 26.576 96.661L25.093 95.178C24.101 94.186 23.109 93.194 22.117 92.202L20.133 90.719C19.141 89.727 18.149 88.735 17.157 87.743L15.674 86.26C14.682 85.268 13.69 84.276 12.7 83.284L11.217 81.791C10.225 80.8 9.233 79.808 8.241 78.816L6.758 77.333C5.766 76.341 4.774 75.349 3.782 74.357L2.299 72.874C1.307 71.882 0.315 70.89 0.315 70.89Z" fill="#000000"/>
</svg>
