<?xml version="1.0" encoding="UTF-8"?>
<!DOCTYPE svg PUBLIC "-//W3C//DTD SVG 1.1//EN" "http://www.w3.org/Graphics/SVG/1.1/DTD/svg11.dtd">
<!-- Creator: CorelDRAW -->
<svg xmlns="http://www.w3.org/2000/svg" xml:space="preserve" width="3.3554mm" height="3.333mm" version="1.1" style="shape-rendering:geometricPrecision; text-rendering:geometricPrecision; image-rendering:optimizeQuality; fill-rule:evenodd; clip-rule:evenodd"
viewBox="0 0 19.79 19.66"
 xmlns:xlink="http://www.w3.org/1999/xlink"
 xmlns:xodm="http://www.corel.com/coreldraw/odm/2003">
 <defs>
  <style type="text/css">
   <![CDATA[
    .fil0 {fill:#2B2A29}
   ]]>
  </style>
 </defs>
 <g id="Слой_x0020_1">
  <metadata id="CorelCorpID_0Corel-Layer"/>
  <g id="_2738568395200">
   <path class="fil0" d="M18.18 15.29l-3.63 -3.63 0.72 -0.72 3.65 3.61 -0.74 0.74zm-13.65 -13.6l0.82 -0.82 3.54 3.54 -0.82 0.82 -3.54 -3.54zm10.96 8.58c-0.12,-0.12 -0.32,-0.12 -0.44,0l-1.74 1.75 -5.57 -5.57 1.81 -1.81c0.12,-0.12 0.12,-0.32 0,-0.44l-3.99 -3.99c-0.12,-0.12 -0.32,-0.12 -0.44,0l-4.91 4.91c-0.12,0.12 -0.12,0.32 0,0.44l11.74 11.74c0.12,0.12 0.32,0.12 0.44,0 0.12,-0.12 0.12,-0.32 0,-0.44l-11.52 -11.52 3.21 -3.21 3.54 3.54 -0.55 0.55c-0.12,0.12 -0.12,0.32 0,0.44l6.01 6.01c0.12,0.12 0.32,0.12 0.44,0l0.58 -0.58 3.63 3.63 -3.28 3.28c-0.12,0.12 -0.12,0.32 0,0.44 0.12,0.12 0.32,0.12 0.44,0l4.69 -4.69c0.12,-0.12 0.12,-0.32 -0,-0.44l-4.09 -4.05z"/>
   <path class="fil0" d="M4.69 1.69l3.38 3.38 0.65 -0.65 -3.38 -3.38 -0.65 0.65zm3.38 3.66l-0.08 -0.04 -3.54 -3.54 0 -0.17 0.82 -0.82 0.17 0 3.55 3.54 0 0.17 -0.82 0.82 -0.08 0.04zm6.64 6.31l3.46 3.46 0.58 -0.58 -3.48 -3.44 -0.56 0.56zm3.46 3.75l-0.08 -0.04 -3.63 -3.63 0 -0.17 0.72 -0.72 0.17 0 3.65 3.61 0.03 0.08 -0.03 0.08 -0.74 0.74 -0.08 0.04zm-4.07 -3.42l0.08 0.04 3.63 3.63 0.03 0.08 -0.03 0.08 -3.28 3.28 -0.06 0.14 0.06 0.14 0.28 0 4.69 -4.69 0.06 -0.14 -0.06 -0.14 -4.1 -4.05 -0.27 0 -1.74 1.74 -0.17 0 -5.57 -5.57 0 -0.17 1.81 -1.81 0.06 -0.14 -0.06 -0.14 -3.99 -3.99 -0.14 -0.06 -0.14 0.06 -4.91 4.91 -0.06 0.14 0.06 0.14 11.74 11.74 0.28 0 0.06 -0.14 -0.06 -0.14 -11.52 -11.52 0 -0.17 3.21 -3.21 0.17 0 3.54 3.54 0.03 0.08 -0.03 0.08 -0.56 0.55 -0.06 0.14 0.06 0.14 6.01 6.01 0.28 0 0.58 -0.58 0.08 -0.04zm0.57 7.68c-0.11,0 -0.22,-0.04 -0.3,-0.12 -0.08,-0.08 -0.13,-0.19 -0.13,-0.3 0,-0.12 0.05,-0.22 0.13,-0.3l3.2 -3.2 -3.46 -3.46 -0.5 0.5c-0.17,0.17 -0.44,0.17 -0.61,0l-6.01 -6.01c-0.08,-0.08 -0.13,-0.19 -0.13,-0.3 0,-0.11 0.04,-0.22 0.13,-0.3l0.47 -0.47 -3.38 -3.38 -3.04 3.04 11.44 11.44c0.08,0.08 0.13,0.19 0.13,0.31 0,0.11 -0.04,0.22 -0.13,0.3 -0.17,0.17 -0.44,0.17 -0.61,0l-11.74 -11.74c-0.08,-0.08 -0.13,-0.19 -0.13,-0.3 0,-0.11 0.04,-0.22 0.13,-0.3l4.91 -4.91c0.08,-0.08 0.19,-0.13 0.3,-0.13l0 -0c0.11,0 0.22,0.04 0.3,0.13l3.99 3.99c0.08,0.08 0.13,0.19 0.13,0.3 0,0.12 -0.05,0.22 -0.13,0.3l-1.73 1.73 5.4 5.4 1.66 -1.66c0.17,-0.17 0.44,-0.17 0.61,-0l4.09 4.05c0.08,0.08 0.13,0.19 0.13,0.31 0,0.12 -0.04,0.22 -0.13,0.31l-4.69 4.69c-0.08,0.08 -0.19,0.12 -0.3,0.12z"/>
  </g>
 </g>
</svg>
