<?xml version="1.0" encoding="UTF-8"?>
<!DOCTYPE svg PUBLIC "-//W3C//DTD SVG 1.1//EN" "http://www.w3.org/Graphics/SVG/1.1/DTD/svg11.dtd">
<!-- Creator: CorelDRAW -->
<svg xmlns="http://www.w3.org/2000/svg" xml:space="preserve" width="14.4737mm" height="20mm" version="1.1" style="shape-rendering:geometricPrecision; text-rendering:geometricPrecision; image-rendering:optimizeQuality; fill-rule:evenodd; clip-rule:evenodd"
viewBox="0 0 26.72 36.93"
 xmlns:xlink="http://www.w3.org/1999/xlink"
 xmlns:xodm="http://www.corel.com/coreldraw/odm/2003">
 <defs>
  <style type="text/css">
   <![CDATA[
    .fil0 {fill:#FEFEFE}
   ]]>
  </style>
 </defs>
 <g id="Слой_x0020_1">
  <metadata id="CorelCorpID_0Corel-Layer"/>
  <g id="_2738883315056">
   <path class="fil0" d="M8.8 31.57c-0.27,0 -0.5,-0.21 -0.52,-0.48l-1.35 -17.25c-0.02,-0.29 0.19,-0.54 0.48,-0.56 0.29,-0.02 0.54,0.19 0.56,0.48l1.35 17.25c0.02,0.29 -0.19,0.54 -0.48,0.56 -0.01,0 -0.03,0 -0.04,0z"/>
   <path class="fil0" d="M25.68 11.61c0,0.92 -0.75,1.66 -1.66,1.66l-20.79 0c-0.92,0 -1.67,-0.74 -1.68,-1.65 -0,-0.41 0.13,-0.7 0.27,-0.92 0.12,-0.19 0.08,-0.44 -0.08,-0.6 -0.3,-0.29 -0.71,-0.78 -0.71,-1.59 0,-1.18 0.96,-2.14 2.14,-2.14 0.02,0 0.04,0 0.12,0 0.32,0.01 0.57,-0.29 0.48,-0.61l-0.01 -0.05c-0.05,-0.18 -0.07,-0.36 -0.07,-0.55 0,-1.18 0.96,-2.14 2.14,-2.14 0.62,0 1.21,0.27 1.61,0.73l0.03 0.03c0.19,0.22 0.54,0.22 0.73,0l0.03 -0.03c0.41,-0.47 1,-0.73 1.61,-0.73 0.38,0 0.75,0.1 1.07,0.29l0.05 0.03c0.3,0.17 0.68,-0.02 0.72,-0.36l0.01 -0.05c0.13,-1.07 1.05,-1.88 2.14,-1.88 1.2,0 2.16,1.01 2.13,2.21 0,0 0,0 0,0.01 -0,0.23 0.16,0.44 0.39,0.48l0.03 0.01c0.72,0.15 1.32,0.68 1.58,1.37l0.01 0.04c0.1,0.28 0.43,0.4 0.69,0.26l0.04 -0.02c0.31,-0.17 0.66,-0.25 1.01,-0.25 0.86,0 1.63,0.51 1.97,1.3l0.02 0.04c0.12,0.27 0.45,0.38 0.7,0.22l0.03 -0.02c0.34,-0.21 0.72,-0.31 1.12,-0.31 1.18,0 2.14,0.96 2.14,2.14 0,0.64 -0.26,1.07 -0.47,1.35 -0.14,0.18 -0.13,0.44 0.02,0.61 0.21,0.24 0.45,0.6 0.45,1.14zm1.04 -3.1c0,-1.76 -1.43,-3.18 -3.18,-3.18 -0.4,-0 -0.8,0.08 -1.17,0.22 -0.58,-0.89 -1.58,-1.44 -2.66,-1.44 -0.34,0 -0.68,0.06 -1,0.16 -0.18,-0.31 -0.4,-0.58 -0.67,-0.82 -0.31,-0.27 -0.66,-0.47 -1.04,-0.61 -0.17,-1.6 -1.53,-2.84 -3.16,-2.84 -1.37,0 -2.57,0.88 -3.01,2.13 -0.31,-0.1 -0.64,-0.15 -0.97,-0.15 -0.73,0 -1.44,0.25 -2,0.71 -0.56,-0.46 -1.27,-0.71 -2,-0.71 -1.76,0 -3.18,1.43 -3.18,3.18 0,0.07 0,0.14 0.01,0.2 -1.51,0.25 -2.67,1.56 -2.67,3.14 0,0.75 0.26,1.47 0.74,2.04 -0.14,0.34 -0.22,0.7 -0.22,1.07 0,1.04 0.59,1.94 1.45,2.39 0.32,0.17 0.68,0.28 1.06,0.3 0.06,0 0.13,0.01 0.19,0.01l20.8 0c0.25,0 0.49,-0.03 0.72,-0.1 1.14,-0.32 1.98,-1.37 1.98,-2.61 0,-0.53 -0.16,-1.04 -0.44,-1.48 0.29,-0.49 0.44,-1.04 0.44,-1.62z"/>
   <path class="fil0" d="M5.89 7.6c0.11,-0.07 0.25,-0.09 0.39,-0.06 0.28,0.07 0.45,0.35 0.38,0.63 -0.21,0.83 0.3,1.68 1.13,1.89 0.83,0.21 1.68,-0.3 1.89,-1.13 0.07,-0.28 0.35,-0.45 0.63,-0.38 0.28,0.07 0.45,0.35 0.38,0.63 -0.35,1.39 -1.76,2.23 -3.15,1.88 -1.39,-0.35 -2.23,-1.76 -1.88,-3.15 0.03,-0.14 0.12,-0.25 0.24,-0.32z"/>
   <path class="fil0" d="M14.19 10.15c-0.13,-0.26 -0.02,-0.57 0.23,-0.7 0.77,-0.38 1.08,-1.32 0.7,-2.09 -0.38,-0.77 -1.32,-1.08 -2.09,-0.7 -0.26,0.13 -0.57,0.02 -0.7,-0.23 -0.13,-0.26 -0.02,-0.57 0.23,-0.7 1.28,-0.64 2.84,-0.11 3.48,1.17 0.64,1.28 0.11,2.84 -1.17,3.48 -0.26,0.13 -0.57,0.02 -0.7,-0.23z"/>
   <path class="fil0" d="M21.27 12.27c-1.19,0 -2.16,-0.97 -2.16,-2.16 0,-1.19 0.97,-2.16 2.16,-2.16 0.29,0 0.52,0.23 0.52,0.52 0,0.29 -0.23,0.52 -0.52,0.52 -0.62,0 -1.12,0.5 -1.12,1.12 0,0.62 0.5,1.12 1.12,1.12 0.62,-0 1.12,-0.5 1.12,-1.12 0,-0.29 0.23,-0.52 0.52,-0.52 0.29,0 0.52,0.23 0.52,0.52 0,1.19 -0.97,2.16 -2.16,2.16z"/>
   <path class="fil0" d="M17.87 25.74l0 0c0.13,0.02 0.25,0.05 0.38,0.08 0.01,-0.01 0.01,-0.01 0.02,-0.02 0.17,-0.22 0.38,-0.42 0.61,-0.58 0.01,-0.01 0.02,-0.01 0.03,-0.02l0.86 -10.89 0.04 -0.48c0.02,-0.29 -0.19,-0.54 -0.48,-0.56 -0.01,-0 -0.03,-0 -0.04,-0 -0.27,0 -0.5,0.21 -0.52,0.48l-0.04 0.56 -0.9 11.42c0.02,0 0.03,0 0.05,0.01l0 0z"/>
   <path class="fil0" d="M13.17 34.41l-8.25 0c-0.25,0 -0.46,-0.19 -0.48,-0.44l-1.42 -19.66 -0.05 -0.76 -1.04 0.07 0.03 0.38 1.44 20.04c0.03,0.38 0.2,0.74 0.48,1 0.28,0.26 0.65,0.41 1.03,0.41l9.39 0c-0.26,-0.14 -0.5,-0.32 -0.72,-0.54 -0.15,-0.15 -0.29,-0.32 -0.42,-0.5z"/>
   <path class="fil0" d="M23.9 25.89l0.84 -11.67 0.04 -0.59 -1.04 -0.07 -0.05 0.76 -0.78 10.87c0.11,0.06 0.22,0.12 0.32,0.19 0.24,0.15 0.46,0.33 0.67,0.52z"/>
   <path class="fil0" d="M23.98 34.53c-0.26,0.81 -0.6,1.36 -1.42,1.36l-0 0c-0.02,0 -0.04,-0 -0.06,-0 -0.01,-0 -0.01,-0 -0.02,-0 -0.01,0 -0.01,0 -0.02,0l-0 0c-0,0 -0,0 -0,0 -0.03,0 -0.06,0 -0.08,0 -0.47,0 -0.91,-0.16 -1.27,-0.44 -0.19,-0.15 -0.35,-0.32 -0.48,-0.53 -0.09,-0.14 -0.23,-0.22 -0.39,-0.24 -0.02,-0 -0.03,-0 -0.05,-0 -0.14,0 -0.28,0.06 -0.38,0.16 -0.2,0.21 -0.43,0.43 -0.68,0.61 -0.34,0.25 -0.7,0.43 -1.06,0.43 -0.07,0 -0.14,-0.01 -0.21,-0.02 -0.24,-0.06 -0.46,-0.21 -0.64,-0.4 -0.31,-0.32 -0.52,-0.75 -0.63,-1.04 -0.02,-0.06 -0.04,-0.11 -0.06,-0.15 -0.05,-0.15 -0.15,-0.27 -0.3,-0.33 -0.06,-0.03 -0.13,-0.04 -0.2,-0.04 -0.08,0 -0.16,0.02 -0.24,0.06 -0.09,0.04 -0.18,0.06 -0.27,0.06 -0.39,0 -0.79,-0.36 -1.02,-0.78 -0.46,-0.84 -0.45,-2.13 1.06,-3 0.12,-0.07 0.21,-0.18 0.24,-0.32 0.04,-0.13 0.02,-0.28 -0.05,-0.4 -0.49,-0.84 -0.03,-1.38 0.28,-1.63 0.34,-0.27 0.82,-0.43 1.29,-0.43 0.12,0 0.25,0.01 0.37,0.03 0.3,0.06 0.57,0.19 0.79,0.4 0.06,0.06 0.13,0.1 0.21,0.13 0.05,0.02 0.1,0.02 0.16,0.02 0.05,0 0.11,-0.01 0.16,-0.03 0.18,-0.06 0.32,-0.22 0.35,-0.41 0.14,-0.81 0.61,-1.2 1.44,-1.2 0.03,0 0.07,0 0.1,0 0.71,0.03 1.37,0.31 1.87,0.81 0.04,0.04 0.09,0.09 0.13,0.14 0.53,0.6 0.78,1.36 0.71,2.15 -0.04,0.5 -0.13,0.93 -0.26,1.28 -0.27,-0.12 -0.54,-0.2 -0.82,-0.25 -0.16,-0.02 -0.32,-0.04 -0.47,-0.04 -0.73,0 -1.46,0.27 -2.1,0.8 -0.22,0.18 -0.25,0.51 -0.07,0.73 0.1,0.12 0.25,0.19 0.4,0.19 0.12,0 0.23,-0.04 0.33,-0.12 0.45,-0.37 0.94,-0.56 1.44,-0.56 0.13,0 0.27,0.01 0.4,0.04 0.28,0.06 0.56,0.18 0.83,0.35l0 0c0.01,0 0.01,0.01 0.02,0.01 0,0 0,0 0.01,0 0.01,0 0.01,0.01 0.02,0.01 0,0 0.01,0 0.01,0 0.01,0.01 0.02,0.01 0.03,0.02 0.03,0.02 0.06,0.03 0.09,0.05 1.01,0.64 0.65,2.06 0.52,2.48zm1.14 -1.75c-0.13,-0.59 -0.43,-1.09 -0.87,-1.44 0.2,-0.48 0.34,-1.06 0.39,-1.73 0.05,-0.54 -0.02,-1.08 -0.19,-1.59 -0.14,-0.42 -0.35,-0.8 -0.62,-1.15 -0.05,-0.07 -0.1,-0.13 -0.16,-0.19 -0.24,-0.27 -0.52,-0.51 -0.82,-0.7 -0.13,-0.08 -0.26,-0.15 -0.39,-0.22 -0.48,-0.23 -0.99,-0.36 -1.53,-0.38 -0.05,-0 -0.09,-0 -0.14,-0 -0.59,0 -1.1,0.15 -1.51,0.43 -0.18,0.12 -0.33,0.27 -0.46,0.44 -0.11,0.14 -0.2,0.29 -0.27,0.45 -0.24,-0.12 -0.51,-0.2 -0.79,-0.24 -0.15,-0.02 -0.29,-0.03 -0.45,-0.03 -0.02,0 -0.04,0 -0.05,0 -0.68,0.01 -1.36,0.25 -1.88,0.65 -0.44,0.34 -0.74,0.79 -0.85,1.28 -0.09,0.4 -0.06,0.83 0.09,1.25 -0.87,0.63 -1.22,1.37 -1.35,1.9 -0.18,0.75 -0.08,1.54 0.3,2.24 0.14,0.26 0.31,0.49 0.51,0.69 0.18,0.18 0.39,0.33 0.6,0.44 0.27,0.14 0.55,0.2 0.82,0.2 0.07,0 0.13,-0 0.2,-0.01 0.06,0.12 0.13,0.26 0.21,0.41 0.02,0.03 0.04,0.07 0.06,0.1 0.44,0.71 1,1.17 1.63,1.31 0.15,0.04 0.31,0.05 0.46,0.05 0.66,0 1.35,-0.32 2.06,-0.95 0.23,0.23 0.49,0.43 0.77,0.59 0.45,0.24 0.96,0.37 1.47,0.37 0.04,0 0.07,-0 0.11,-0 0.03,0 0.06,0 0.08,0 0.69,0 1.26,-0.24 1.69,-0.72 0.38,-0.42 0.58,-0.95 0.71,-1.36 0.24,-0.74 0.29,-1.45 0.15,-2.07z"/>
  </g>
 </g>
</svg>
