<?xml version="1.0" encoding="UTF-8"?>
<!DOCTYPE svg PUBLIC "-//W3C//DTD SVG 1.1//EN" "http://www.w3.org/Graphics/SVG/1.1/DTD/svg11.dtd">
<!-- Creator: CorelDRAW -->
<svg xmlns="http://www.w3.org/2000/svg" xml:space="preserve" width="3.333mm" height="3.3331mm" version="1.1" style="shape-rendering:geometricPrecision; text-rendering:geometricPrecision; image-rendering:optimizeQuality; fill-rule:evenodd; clip-rule:evenodd"
viewBox="0 0 8.68 8.68"
 xmlns:xlink="http://www.w3.org/1999/xlink"
 xmlns:xodm="http://www.corel.com/coreldraw/odm/2003">
 <defs>
  <style type="text/css">
   <![CDATA[
    .fil0 {fill:#2B2A29}
   ]]>
  </style>
 </defs>
 <g id="Слой_x0020_1">
  <metadata id="CorelCorpID_0Corel-Layer"/>
  <g id="_2738567051440">
   <path class="fil0" d="M4.34 0.28c-2.24,0 -4.06,1.82 -4.06,4.06 0,2.24 1.82,4.06 4.06,4.06 2.24,0 4.06,-1.82 4.06,-4.06 0,-2.24 -1.82,-4.06 -4.06,-4.06zm0 8.36c-2.37,0 -4.3,-1.93 -4.3,-4.3 0,-2.37 1.93,-4.3 4.3,-4.3 2.37,0 4.3,1.93 4.3,4.3 0,2.37 -1.93,4.3 -4.3,4.3z"/>
   <path class="fil0" d="M4.34 0.32c-2.22,0 -4.02,1.8 -4.02,4.02 0,2.22 1.8,4.02 4.02,4.02 2.22,0 4.02,-1.8 4.02,-4.02 0,-2.22 -1.8,-4.02 -4.02,-4.02zm0 8.12c-2.26,0 -4.11,-1.84 -4.11,-4.11 0,-2.26 1.84,-4.11 4.11,-4.11 2.26,-0 4.11,1.84 4.11,4.11 0,2.26 -1.84,4.11 -4.11,4.11zm0 -8.36c-2.34,0 -4.25,1.91 -4.25,4.25 0,2.34 1.91,4.25 4.25,4.25 2.34,-0 4.25,-1.91 4.25,-4.25 0,-2.34 -1.91,-4.25 -4.25,-4.25zm0 8.59c-2.39,0 -4.34,-1.95 -4.34,-4.34 0,-2.39 1.95,-4.34 4.34,-4.34 2.39,-0 4.34,1.95 4.34,4.34 0,2.39 -1.95,4.34 -4.34,4.34z"/>
   <path class="fil0" d="M3 5.73l-0.08 -0.04c-0.04,-0.05 -0.04,-0.12 0,-0.16l1.04 -0.99c0.05,-0.04 0.12,-0.04 0.16,0 0.04,0.05 0.04,0.12 -0,0.16l-1.04 0.99 -0.08 0.03z"/>
   <path class="fil0" d="M4.04 4.55l-0.05 0.02 -1.04 0.99 -0.02 0.05 0.02 0.05 0.1 0 1.04 -0.99 0.02 -0.05 -0.02 -0.05 -0.05 -0.02 -0 0zm-1.04 1.22c-0.04,0 -0.09,-0.02 -0.12,-0.05 -0.03,-0.03 -0.05,-0.07 -0.04,-0.11 0,-0.04 0.02,-0.08 0.05,-0.11l1.04 -0.99c0.03,-0.03 0.07,-0.05 0.11,-0.04 0.04,0 0.08,0.02 0.11,0.05 0.03,0.03 0.05,0.07 0.04,0.11 -0,0.04 -0.02,0.08 -0.05,0.11l-1.04 0.99c-0.03,0.03 -0.07,0.04 -0.11,0.04z"/>
   <path class="fil0" d="M4.34 4.04c-0.06,0 -0.12,-0.05 -0.12,-0.12l0 -2.68c0,-0.06 0.05,-0.12 0.12,-0.12 0.06,0 0.12,0.05 0.12,0.12l0 2.68c0,0.06 -0.05,0.12 -0.12,0.12z"/>
   <path class="fil0" d="M4.34 1.17c-0.04,0 -0.07,0.03 -0.07,0.07l0 2.68c0,0.04 0.03,0.07 0.07,0.07 0.04,0 0.07,-0.03 0.07,-0.07l0 -2.68c0,-0.04 -0.03,-0.07 -0.07,-0.07zm0 2.92c-0.09,0 -0.16,-0.07 -0.16,-0.16l0 -2.68c0,-0.09 0.07,-0.16 0.16,-0.16 0.09,0 0.16,0.07 0.16,0.16l0 2.68c0,0.09 -0.07,0.16 -0.16,0.16z"/>
   <path class="fil0" d="M4.34 4.11c-0.13,0 -0.23,0.1 -0.23,0.23 0,0.13 0.1,0.23 0.23,0.23 0.13,0 0.23,-0.1 0.23,-0.23 0,-0.13 -0.1,-0.23 -0.23,-0.23zm0 0.7c-0.26,0 -0.47,-0.21 -0.47,-0.47 0,-0.26 0.21,-0.47 0.47,-0.47 0.26,0 0.47,0.21 0.47,0.47 0,0.26 -0.21,0.47 -0.47,0.47z"/>
   <path class="fil0" d="M4.34 4.15c-0.1,0 -0.19,0.09 -0.19,0.19 0,0.1 0.08,0.19 0.19,0.19 0.1,0 0.19,-0.09 0.19,-0.19 0,-0.11 -0.09,-0.19 -0.19,-0.19zm0 0.47c-0.15,0 -0.28,-0.12 -0.28,-0.28 0,-0.15 0.12,-0.28 0.28,-0.28 0.15,0 0.28,0.12 0.28,0.28 0,0.15 -0.12,0.28 -0.28,0.28zm0 -0.7c-0.23,0 -0.42,0.19 -0.42,0.42 0,0.23 0.19,0.42 0.42,0.42 0.23,-0 0.42,-0.19 0.42,-0.42 0,-0.23 -0.19,-0.42 -0.42,-0.42zm0 0.93c-0.28,0 -0.51,-0.23 -0.51,-0.51 0,-0.28 0.23,-0.51 0.51,-0.51 0.28,-0 0.51,0.23 0.51,0.51 0,0.28 -0.23,0.51 -0.51,0.51z"/>
  </g>
 </g>
</svg>
