<?xml version="1.0" encoding="UTF-8"?>
<!DOCTYPE svg PUBLIC "-//W3C//DTD SVG 1.1//EN" "http://www.w3.org/Graphics/SVG/1.1/DTD/svg11.dtd">
<!-- Creator: CorelDRAW -->
<svg xmlns="http://www.w3.org/2000/svg" xml:space="preserve" width="26.4205mm" height="20.0001mm" version="1.1" style="shape-rendering:geometricPrecision; text-rendering:geometricPrecision; image-rendering:optimizeQuality; fill-rule:evenodd; clip-rule:evenodd"
viewBox="0 0 106.43 80.57"
 xmlns:xlink="http://www.w3.org/1999/xlink"
 xmlns:xodm="http://www.corel.com/coreldraw/odm/2003">
 <defs>
  <style type="text/css">
   <![CDATA[
    .fil0 {fill:#FEFEFE}
   ]]>
  </style>
 </defs>
 <g id="Слой_x0020_1">
  <metadata id="CorelCorpID_0Corel-Layer"/>
  <g id="_2738881731696">
   <path class="fil0" d="M63.84 80.57c-2.21,0 -4.45,-0.42 -6.53,-1.27l-22.38 -8.28c-1.36,-0.52 -2.79,-0.91 -4.22,-1.17 -2.79,-0.52 -5.62,-0.58 -8.44,-0.16l-3.86 0.55c-0.75,0.1 -1.46,-0.42 -1.56,-1.17 -0.1,-0.75 0.42,-1.46 1.17,-1.56l3.86 -0.55c3.12,-0.45 6.27,-0.39 9.35,0.19 1.59,0.29 3.15,0.75 4.68,1.3l22.41 8.28 0.03 0c3.83,1.56 8.18,1.43 11.89,-0.39l31.47 -15.2c0.84,-0.39 1.46,-1.1 1.75,-1.98 0.29,-0.88 0.23,-1.82 -0.16,-2.63 -0.58,-1.17 -1.75,-1.88 -3.05,-1.88 -0.32,0 -0.62,0.03 -0.91,0.13l-26.37 7.83c-0.75,0.23 -1.49,-0.19 -1.72,-0.94 -0.23,-0.75 0.19,-1.49 0.94,-1.72l26.37 -7.83c0.55,-0.16 1.1,-0.23 1.69,-0.23 2.34,0 4.48,1.3 5.52,3.41 0.75,1.49 0.88,3.18 0.32,4.77 -0.55,1.59 -1.66,2.86 -3.15,3.57l-31.47 15.2c-2.44,1.14 -5.03,1.72 -7.63,1.72z"/>
   <path class="fil0" d="M68.26 66.9c-0.55,0 -1.1,-0.1 -1.66,-0.26l-19.55 -6.01c-0.71,-0.23 -1.14,-1.01 -0.91,-1.72 0.23,-0.71 1.01,-1.14 1.72,-0.91l19.55 6.01c1.46,0.45 3.02,-0.33 3.54,-1.79 0.1,-0.32 0.16,-0.62 0.16,-0.97 0,-0.1 0,-0.19 -0.03,-0.33 -0.1,-0.88 -0.62,-1.69 -1.36,-2.14l-24 -9.74c-5.29,-2.14 -11.07,-2.99 -16.76,-2.44l-10.62 1.23c-0.75,0.1 -1.43,-0.45 -1.53,-1.2 -0.1,-0.75 0.45,-1.43 1.2,-1.53l10.65 -1.23 0.03 0c6.14,-0.58 12.37,0.33 18.09,2.63l24.06 9.81c0.06,0.03 0.1,0.07 0.16,0.07 1.56,0.88 2.6,2.47 2.79,4.25 0.03,0.23 0.03,0.42 0.03,0.62 0,0.65 -0.1,1.3 -0.33,1.88 -0.78,2.34 -2.92,3.77 -5.26,3.77z"/>
   <path class="fil0" d="M16.89 44.13l0 0zm-5.07 26.21l5.03 0 0 -26.17 -5.03 0 0 26.17zm5.07 2.76l-6.4 0c-0.06,0 -0.1,0 -0.16,0 -0.75,-0.03 -1.3,-0.65 -1.3,-1.36l0 -28.93c0,-0.75 0.58,-1.33 1.3,-1.36 0.06,0 0.1,0 0.16,0l6.4 0c1.49,0 2.7,1.2 2.7,2.7l0 26.3c0.03,1.43 -1.2,2.66 -2.7,2.66z"/>
   <path class="fil0" d="M3.08 41.73c-0.16,0 -0.32,0.13 -0.32,0.32l0 30.43c0,0.16 0.13,0.32 0.32,0.32l5.98 -0 0 -31.08 -5.98 0zm7.34 33.81l-7.34 0c-1.69,0 -3.08,-1.36 -3.08,-3.08l0 -30.43c0,-1.69 1.36,-3.09 3.08,-3.09l7.34 0c0.75,0 1.4,0.62 1.4,1.4l0 33.81c0,0.78 -0.62,1.4 -1.4,1.4z"/>
   <path class="fil0" d="M56.77 33.38c0.23,0 0.42,0.06 0.65,0.16 0.68,0.36 1.36,0.65 2.08,0.88 0.58,0.19 0.97,0.71 0.97,1.33l0 4.77c0,0.1 0.1,0.19 0.19,0.19l5.78 0c0.1,0 0.19,-0.1 0.19,-0.19l0 -4.77c0,-0.62 0.39,-1.14 0.97,-1.33 0.71,-0.23 1.4,-0.52 2.08,-0.88 0.52,-0.29 1.2,-0.16 1.62,0.26l3.38 3.38c0.06,0.07 0.19,0.07 0.26,0l4.09 -4.09c0.06,-0.06 0.06,-0.19 -0,-0.26l-3.38 -3.38c-0.42,-0.42 -0.52,-1.07 -0.26,-1.62 0.36,-0.68 0.65,-1.36 0.88,-2.08 0.19,-0.58 0.71,-0.97 1.33,-0.97l4.77 0c0.1,0 0.19,-0.1 0.19,-0.19l0 -5.78c0,-0.1 -0.1,-0.19 -0.19,-0.19l-4.77 0c-0.62,0 -1.14,-0.39 -1.33,-0.97 -0.23,-0.71 -0.52,-1.4 -0.88,-2.08 -0.29,-0.52 -0.16,-1.2 0.26,-1.62l3.38 -3.38c0.06,-0.06 0.06,-0.19 -0,-0.26l-4.16 -4.03c-0.06,-0.06 -0.19,-0.06 -0.26,0l-3.38 3.38c-0.42,0.42 -1.07,0.52 -1.62,0.26 -0.68,-0.36 -1.36,-0.65 -2.08,-0.88 -0.58,-0.19 -0.97,-0.71 -0.97,-1.33l0 -4.77c0,-0.1 -0.1,-0.19 -0.19,-0.19l-5.78 0c-0.1,0 -0.19,0.1 -0.19,0.19l0 4.81c0,0.62 -0.39,1.14 -0.97,1.33 -0.71,0.23 -1.4,0.52 -2.08,0.88 -0.52,0.26 -1.2,0.16 -1.62,-0.26l-3.38 -3.38c-0.06,-0.06 -0.19,-0.06 -0.26,0l-4.09 4.09c-0.06,0.06 -0.06,0.19 0,0.26l3.38 3.38c0.42,0.42 0.52,1.07 0.26,1.62 -0.36,0.68 -0.65,1.36 -0.88,2.08 -0.19,0.58 -0.71,0.97 -1.33,0.97l-4.77 -0c-0.1,0 -0.19,0.1 -0.19,0.19l0 5.78c0,0.1 0.1,0.19 0.19,0.19l4.77 0c0.62,0 1.14,0.39 1.33,0.97 0.23,0.71 0.52,1.4 0.88,2.08 0.29,0.52 0.16,1.2 -0.26,1.62l-3.38 3.38c-0.06,0.06 -0.06,0.19 0,0.26l4.16 3.99c0.06,0.07 0.19,0.07 0.26,0l3.38 -3.38c0.26,-0.29 0.62,-0.42 0.97,-0.42zm9.64 10.07l-5.78 0c-1.62,0 -2.96,-1.33 -2.96,-2.95l0 -3.8c-0.19,-0.1 -0.42,-0.16 -0.62,-0.26l-2.7 2.7c-1.14,1.14 -3.02,1.14 -4.16,0l-4.09 -4.09c-1.14,-1.14 -1.14,-3.02 0,-4.16l2.7 -2.7c-0.1,-0.19 -0.16,-0.42 -0.26,-0.62l-3.8 0c-1.62,0 -2.96,-1.33 -2.96,-2.96l0 -5.78c0,-1.62 1.33,-2.96 2.96,-2.96l3.8 0c0.1,-0.19 0.16,-0.42 0.26,-0.62l-2.7 -2.7c-1.14,-1.14 -1.14,-3.02 0,-4.16l4.09 -4.09c1.14,-1.14 3.02,-1.14 4.16,0l2.7 2.7c0.19,-0.1 0.42,-0.16 0.62,-0.26l0 -3.8c0,-1.62 1.33,-2.95 2.96,-2.95l5.78 -0c1.62,0 2.96,1.33 2.96,2.96l0 3.8c0.19,0.1 0.42,0.16 0.62,0.26l2.7 -2.7c1.14,-1.14 3.02,-1.14 4.16,0l4.09 4.09c1.14,1.14 1.14,3.02 0,4.16l-2.7 2.7c0.1,0.19 0.16,0.42 0.26,0.62l3.8 0c1.62,0 2.96,1.33 2.96,2.96l0 5.78c0,1.62 -1.33,2.96 -2.96,2.96l-3.8 0c-0.1,0.19 -0.16,0.42 -0.26,0.62l2.7 2.7c1.14,1.14 1.14,3.02 0,4.16l-4.09 4.09c-1.14,1.14 -3.02,1.14 -4.16,0l-2.7 -2.7c-0.19,0.1 -0.42,0.16 -0.62,0.26l0 3.8c-0.03,1.62 -1.33,2.95 -2.96,2.95z"/>
   <path class="fil0" d="M63.52 15c-3.7,0 -6.72,3.02 -6.72,6.72 0,3.7 3.02,6.69 6.72,6.69 3.7,0 6.72,-3.02 6.72,-6.72 0,-3.67 -3.02,-6.69 -6.72,-6.69zm0 16.17c-5.23,0 -9.48,-4.25 -9.48,-9.48 0,-5.23 4.25,-9.48 9.48,-9.48 5.23,0 9.48,4.25 9.48,9.48 0,5.23 -4.25,9.48 -9.48,9.48z"/>
  </g>
 </g>
</svg>
