<svg width="200" height="200" viewBox="0 0 200 200" fill="none" xmlns="http://www.w3.org/2000/svg">
  <path d="M100 10 C120 30, 140 50, 150 80 C160 110, 160 140, 150 170 C140 180, 120 190, 100 195 C100 195, 90 150, 85 120 C80 90, 75 60, 100 10 Z" fill="#FFB84D" opacity="0.8"/>
  <path d="M100 10 C80 30, 60 50, 50 80 C40 110, 40 140, 50 170 C60 180, 80 190, 100 195 C100 195, 110 150, 115 120 C120 90, 125 60, 100 10 Z" fill="#FFA033" opacity="0.7"/>
  <line x1="100" y1="10" x2="100" y2="195" stroke="#CC6600" stroke-width="3"/>
</svg>

