<?xml version="1.0" encoding="UTF-8"?>
<!DOCTYPE svg PUBLIC "-//W3C//DTD SVG 1.1//EN" "http://www.w3.org/Graphics/SVG/1.1/DTD/svg11.dtd">
<!-- Creator: CorelDRAW -->
<svg xmlns="http://www.w3.org/2000/svg" xml:space="preserve" width="21.1641mm" height="20.0001mm" version="1.1" style="shape-rendering:geometricPrecision; text-rendering:geometricPrecision; image-rendering:optimizeQuality; fill-rule:evenodd; clip-rule:evenodd"
viewBox="0 0 41.84 39.54"
 xmlns:xlink="http://www.w3.org/1999/xlink"
 xmlns:xodm="http://www.corel.com/coreldraw/odm/2003">
 <defs>
  <style type="text/css">
   <![CDATA[
    .fil0 {fill:#FEFEFE}
   ]]>
  </style>
 </defs>
 <g id="Слой_x0020_1">
  <metadata id="CorelCorpID_0Corel-Layer"/>
  <path class="fil0" d="M20.99 39.52c-4.98,0 -9.97,0.02 -14.95,-0.01 -1.93,-0.01 -3.55,-0.74 -4.76,-2.28 -1.22,-1.56 -1.51,-3.34 -1.11,-5.25 0.65,-3.09 1.33,-6.17 1.98,-9.25 0.78,-3.67 1.55,-7.34 2.33,-11.01 0.15,-0.72 0.31,-1.44 0.47,-2.15 0.16,-0.71 0.36,-0.89 1.1,-0.97 1.19,-0.13 2.39,-0.07 3.59,-0.08 0.14,-0 0.27,0.01 0.41,0 0.41,-0.01 0.88,0.1 1.2,-0.07 0.37,-0.2 0.15,-0.74 0.2,-1.13 0.51,-3.62 3.55,-7.19 7.99,-7.28 0.84,-0.02 1.68,-0.05 2.51,-0.05 3.58,-0.03 6.07,1.75 7.68,4.86 0.49,0.95 0.76,1.97 0.85,3.05 0.06,0.66 0.07,0.65 0.74,0.65 1.25,0 2.5,0.01 3.76,0.02 1.08,0.01 1.2,0.11 1.44,1.14 0.84,3.6 1.66,7.21 2.52,10.8 0.84,3.54 1.71,7.08 2.59,10.62 0.34,1.37 0.44,2.73 0.04,4.11 -0.66,2.3 -3,4.32 -5.73,4.29 -4.95,-0.05 -9.91,-0.02 -14.87,-0.02zm-3.11 -1.74c-3.73,0 -7.46,0 -11.19,-0 -0.84,-0 -1.68,-0 -2.48,-0.38 -1.82,-0.85 -2.81,-2.72 -2.42,-4.79 0.44,-2.32 0.94,-4.64 1.44,-6.95 1.05,-4.89 2.11,-9.78 3.17,-14.67 0.15,-0.67 0.14,-0.68 0.83,-0.68 1.14,-0.01 2.29,-0.01 3.43,-0.01 0.68,0 0.68,0 0.69,0.74 0.01,1.14 0.01,2.29 0.02,3.43 0,0.19 -0.01,0.38 0.02,0.57 0.06,0.43 0.36,0.7 0.75,0.72 0.43,0.02 0.83,-0.24 0.92,-0.65 0.05,-0.21 0.03,-0.43 0.03,-0.65 -0,-1.17 -0.02,-2.34 -0.01,-3.51 0,-0.6 0.01,-0.62 0.64,-0.62 3.46,-0.02 6.91,-0.03 10.37,-0.04 0.58,-0 0.59,0.01 0.6,0.59 0.01,1.33 0.01,2.67 0.01,4 0,0.35 0.1,0.64 0.45,0.8 0.37,0.16 0.68,0.07 0.99,-0.15 0.29,-0.21 0.27,-0.51 0.26,-0.81 -0.01,-1.2 -0.01,-2.4 -0.01,-3.59 -0,-0.14 0,-0.27 -0,-0.41 -0.02,-0.31 0.12,-0.44 0.43,-0.43 0.76,0.02 1.52,0.03 2.29,0.04 0.82,0.01 1.63,0.01 2.45,0.02 0.56,0.01 0.58,0.01 0.61,0.59 0.08,1.33 0.14,2.66 0.22,4 0.36,5.84 0.72,11.68 1.11,17.52 0.09,1.28 0.02,2.5 -0.75,3.59 -0.25,0.36 -0.53,0.69 -0.86,0.98 -0.58,0.49 -1.22,0.74 -2.01,0.74 -4,-0.03 -8,-0.01 -12.01,-0.01 0,0.01 0,0.02 0,0.04zm22.28 -4.43c-0.04,0.4 -0.05,0.81 -0.13,1.21 -0.08,0.41 -0.22,0.47 -0.56,0.26 -1.29,-0.8 -2.58,-1.62 -3.87,-2.42 -0.29,-0.18 -0.38,-0.41 -0.4,-0.74 -0.14,-2.22 -0.31,-4.45 -0.45,-6.67 -0.3,-4.64 -0.58,-9.28 -0.87,-13.92 -0.01,-0.08 -0.02,-0.16 -0.02,-0.24 -0.01,-0.23 -0.13,-0.53 0.26,-0.55 0.31,-0.02 0.66,-0.09 0.77,0.38 0.31,1.32 0.63,2.64 0.95,3.96 1.35,5.6 2.7,11.19 4.05,16.79 0.15,0.63 0.29,1.27 0.28,1.94zm-19.06 -24.8c-1.01,0 -2.01,-0.01 -3.02,0 -0.36,0 -0.56,-0.05 -0.53,-0.49 0.15,-2.26 0.94,-4.18 2.83,-5.54 0.53,-0.38 0.71,-0.39 1.23,0.01 1.81,1.41 2.86,3.23 3.05,5.55 0.03,0.41 -0.14,0.46 -0.46,0.46 -1.03,-0 -2.07,-0 -3.1,-0 0,0 0,0.01 0,0.01zm-3.14 -6.2c-0.84,0.99 -1.43,2.01 -1.75,3.18 -0.22,0.82 -0.38,1.64 -0.36,2.49 0.01,0.37 -0.07,0.56 -0.49,0.55 -0.62,-0.02 -1.25,0 -1.88,0.01 -0.29,0.01 -0.36,-0.13 -0.37,-0.4 -0.01,-2.27 1.93,-5.05 4.1,-5.83 0.22,-0.08 0.42,-0.1 0.73,0.01zm10.87 6.11c-0.68,0.15 -1.36,0.06 -2.03,0.1 -0.41,0.03 -0.39,-0.29 -0.39,-0.56 -0.02,-0.99 -0.23,-1.94 -0.58,-2.86 -0.2,-0.53 -0.46,-1.04 -0.77,-1.52 -0.31,-0.47 -0.71,-0.88 -1.13,-1.3 0.43,-0.17 0.76,-0.02 1.09,0.15 1.78,0.89 2.86,2.37 3.47,4.22 0.18,0.56 0.35,1.13 0.34,1.77zm10.11 28.03c-0.57,0.62 -1.17,0.99 -1.86,1.15 -1.08,0.25 -2.18,0.11 -3.44,0.14 0.87,-1.1 1.35,-2.2 1.61,-3.52 1.28,0.69 2.41,1.51 3.69,2.24z"/>
 </g>
</svg>
