<?xml version="1.0" encoding="UTF-8"?>
<!DOCTYPE svg PUBLIC "-//W3C//DTD SVG 1.1//EN" "http://www.w3.org/Graphics/SVG/1.1/DTD/svg11.dtd">
<!-- Creator: CorelDRAW -->
<svg xmlns="http://www.w3.org/2000/svg" xml:space="preserve" width="2.0219mm" height="3.3331mm" version="1.1" style="shape-rendering:geometricPrecision; text-rendering:geometricPrecision; image-rendering:optimizeQuality; fill-rule:evenodd; clip-rule:evenodd"
viewBox="0 0 27.81 45.84"
 xmlns:xlink="http://www.w3.org/1999/xlink"
 xmlns:xodm="http://www.corel.com/coreldraw/odm/2003">
 <defs>
  <style type="text/css">
   <![CDATA[
    .fil0 {fill:#2B2A29}
   ]]>
  </style>
 </defs>
 <g id="Слой_x0020_1">
  <metadata id="CorelCorpID_0Corel-Layer"/>
  <g id="_2738498421568">
   <path class="fil0" d="M13.91 1.49c-0.23,0 -0.46,0.01 -0.69,0.02 -4.09,0.21 -7.68,2.37 -9.85,5.93 -2.22,3.65 -2.49,8.13 -0.72,12l11.26 24.06 11.26 -24.07c1.76,-3.86 1.49,-8.35 -0.72,-11.99 -2.16,-3.56 -5.75,-5.72 -9.85,-5.93 -0.23,-0.01 -0.46,-0.02 -0.69,-0.02zm0 44.12c-0.24,0 -0.47,-0.14 -0.57,-0.36l-11.83 -25.28c-1.94,-4.25 -1.64,-9.17 0.79,-13.18 2.38,-3.92 6.34,-6.3 10.86,-6.53 0.5,-0.02 1.01,-0.02 1.51,0 4.52,0.23 8.47,2.61 10.85,6.53 2.44,4 2.73,8.93 0.79,13.17l-11.83 25.29c-0.1,0.22 -0.33,0.36 -0.57,0.36z"/>
   <path class="fil0" d="M13.91 1.73c-0.23,0 -0.46,0.01 -0.68,0.02 -4.02,0.2 -7.54,2.32 -9.66,5.82 -2.18,3.58 -2.44,7.98 -0.71,11.78l11.04 23.6 11.05 -23.61c1.73,-3.79 1.46,-8.19 -0.71,-11.77 -2.12,-3.49 -5.64,-5.61 -9.66,-5.82 -0.22,-0.01 -0.45,-0.02 -0.68,-0.02zm0 42l-0.21 -0.13 -11.26 -24.06c-1.8,-3.94 -1.52,-8.51 0.73,-12.22 2.2,-3.63 5.86,-5.83 10.03,-6.04 0.47,-0.02 0.94,-0.02 1.4,0 4.18,0.21 7.83,2.41 10.04,6.04 2.26,3.71 2.53,8.28 0.73,12.21l-11.26 24.07 -0.21 0.13zm0 -43.26c-0.25,0 -0.5,0.01 -0.74,0.02 -4.44,0.23 -8.33,2.57 -10.67,6.42 -2.39,3.94 -2.68,8.78 -0.77,12.96l11.83 25.28c0.13,0.27 0.58,0.27 0.71,0l11.83 -25.29c1.9,-4.17 1.61,-9.01 -0.78,-12.95 -2.34,-3.85 -6.23,-6.19 -10.66,-6.42 -0.25,-0.01 -0.49,-0.02 -0.74,-0.02zm0 45.37c-0.33,0 -0.64,-0.2 -0.78,-0.5l-11.83 -25.28c-1.97,-4.32 -1.68,-9.33 0.8,-13.4 2.42,-3.99 6.45,-6.41 11.04,-6.64 0.51,-0.02 1.02,-0.02 1.53,0 4.6,0.23 8.62,2.66 11.04,6.64 2.48,4.07 2.78,9.08 0.81,13.39l-11.83 25.29c-0.14,0.3 -0.45,0.5 -0.78,0.5z"/>
   <path class="fil0" d="M13.91 7.72c-3.44,0 -6.25,2.8 -6.25,6.25 0,3.44 2.8,6.24 6.25,6.24 3.44,-0 6.24,-2.8 6.24,-6.24 0,-3.44 -2.8,-6.24 -6.24,-6.25zm0 13.75c-4.13,0 -7.5,-3.36 -7.5,-7.5 0,-4.14 3.37,-7.5 7.5,-7.5 4.14,0 7.5,3.36 7.5,7.5 0,4.14 -3.36,7.5 -7.5,7.5z"/>
   <path class="fil0" d="M13.91 7.96c-3.31,0 -6.01,2.7 -6.01,6.01 0,3.31 2.69,6.01 6.01,6.01 3.31,0 6.01,-2.69 6.01,-6.01 0,-3.31 -2.7,-6.01 -6.01,-6.01zm0 12.49c-3.57,0 -6.48,-2.91 -6.48,-6.48 0,-3.57 2.91,-6.48 6.48,-6.48 3.57,-0 6.48,2.91 6.48,6.48 0,3.57 -2.91,6.48 -6.48,6.48zm0 -13.75c-4.01,0 -7.27,3.26 -7.27,7.27 0,4.01 3.26,7.26 7.27,7.26 4.01,-0 7.26,-3.26 7.26,-7.26 0,-4 -3.26,-7.26 -7.26,-7.27zm0 15c-4.27,0 -7.74,-3.47 -7.74,-7.74 0,-4.27 3.47,-7.74 7.74,-7.74 4.26,0 7.74,3.47 7.74,7.74 0,4.27 -3.47,7.74 -7.74,7.74z"/>
  </g>
 </g>
</svg>
