<?xml version="1.0" encoding="UTF-8"?>
<!DOCTYPE svg PUBLIC "-//W3C//DTD SVG 1.1//EN" "http://www.w3.org/Graphics/SVG/1.1/DTD/svg11.dtd">
<!-- Creator: CorelDRAW -->
<svg xmlns="http://www.w3.org/2000/svg" xml:space="preserve" width="3.3333mm" height="3.8216mm" version="1.1" style="shape-rendering:geometricPrecision; text-rendering:geometricPrecision; image-rendering:optimizeQuality; fill-rule:evenodd; clip-rule:evenodd"
viewBox="0 0 6.07 6.96"
 xmlns:xlink="http://www.w3.org/1999/xlink"
 xmlns:xodm="http://www.corel.com/coreldraw/odm/2003">
 <defs>
  <style type="text/css">
   <![CDATA[
    .fil0 {fill:#2B2A29}
   ]]>
  </style>
 </defs>
 <g id="Слой_x0020_1">
  <metadata id="CorelCorpID_0Corel-Layer"/>
  <g id="_2738571003040">
   <path class="fil0" d="M2.65 0.22c-1.34,0 -2.43,1.09 -2.43,2.43 0,1.34 1.09,2.43 2.43,2.43 1.34,0 2.43,-1.09 2.43,-2.43 0,-1.34 -1.09,-2.43 -2.43,-2.43zm0 5.04c-1.44,0 -2.61,-1.17 -2.61,-2.61 0,-1.44 1.17,-2.61 2.61,-2.61 1.44,0 2.61,1.17 2.61,2.61 0,1.44 -1.17,2.61 -2.61,2.61z"/>
   <path class="fil0" d="M5.94 6.92l-0.07 -0.03 -1.82 -2.14c-0.03,-0.04 -0.03,-0.1 0.01,-0.13 0.04,-0.03 0.1,-0.03 0.13,0.01l1.82 2.14c0.03,0.04 0.03,0.1 -0.01,0.13l-0.06 0.02z"/>
   <g>
    <path class="fil0" d="M2.65 0.26c-1.32,0 -2.39,1.07 -2.39,2.39 0,1.32 1.07,2.39 2.39,2.39 1.32,-0 2.39,-1.07 2.39,-2.39 0,-1.32 -1.07,-2.39 -2.39,-2.39zm0 4.85c-1.36,0 -2.46,-1.1 -2.46,-2.46 0,-1.36 1.1,-2.46 2.46,-2.46 1.36,0 2.46,1.1 2.46,2.46 0,1.36 -1.1,2.46 -2.46,2.46zm0 -5.04c-1.42,0 -2.58,1.16 -2.58,2.58 0,1.42 1.16,2.58 2.58,2.58 1.42,-0 2.58,-1.16 2.58,-2.58 0,-1.42 -1.16,-2.58 -2.58,-2.58zm0 5.23c-1.46,0 -2.65,-1.19 -2.65,-2.65 0,-1.46 1.19,-2.65 2.65,-2.65 1.46,-0 2.65,1.19 2.65,2.65 0,1.46 -1.19,2.65 -2.65,2.65z"/>
    <path class="fil0" d="M4.12 4.63l-0.04 0.01 -0.01 0.08 1.82 2.14 0.08 0.01 0.01 -0.08 -1.82 -2.14 -0.04 -0.02zm1.82 2.32c-0.04,0 -0.07,-0.02 -0.1,-0.05l-1.82 -2.14c-0.05,-0.05 -0.04,-0.14 0.01,-0.18 0.05,-0.05 0.14,-0.04 0.18,0.01l1.82 2.14c0.05,0.05 0.04,0.14 -0.01,0.18l-0.08 0.03z"/>
   </g>
  </g>
 </g>
</svg>
