<svg width="24" height="24" viewBox="0 0 24 24" fill="none" xmlns="http://www.w3.org/2000/svg">
  <path d="M12 2C13.1 2 14 2.9 14 4C14 5.1 13.1 6 12 6C10.9 6 10 5.1 10 4C10 2.9 10.9 2 12 2Z" fill="currentColor"/>
  <path d="M8 8C8.55 8 9 8.45 9 9V15C9 15.55 8.55 16 8 16C7.45 16 7 15.55 7 15V9C7 8.45 7.45 8 8 8Z" fill="currentColor"/>
  <path d="M16 8C16.55 8 17 8.45 17 9V15C17 15.55 16.55 16 16 16C15.45 16 15 15.55 15 15V9C15 8.45 15.45 8 16 8Z" fill="currentColor"/>
  <path d="M12 8C12.55 8 13 8.45 13 9V15C13 15.55 12.55 16 12 16C11.45 16 11 15.55 11 15V9C11 8.45 11.45 8 12 8Z" fill="currentColor"/>
  <path d="M6 18H18C18.55 18 19 18.45 19 19V21C19 21.55 18.55 22 18 22H6C5.45 22 5 21.55 5 21V19C5 18.45 5.45 18 6 18Z" fill="currentColor"/>
</svg>
