<svg width="24" height="24" viewBox="0 0 24 24" fill="none" xmlns="http://www.w3.org/2000/svg">
<path d="M6 4H18C19.1 4 20 4.9 20 6V18C20 19.1 19.1 20 18 20H6C4.9 20 4 19.1 4 18V6C4 4.9 4.9 4 6 4ZM6 6V18H18V6H6Z" fill="currentColor"/>
<path d="M8 8H16V10H8V8ZM8 12H16V14H8V12ZM8 16H16V18H8V16Z" fill="currentColor"/>
<circle cx="10" cy="9" r="1" fill="currentColor"/>
<circle cx="14" cy="9" r="1" fill="currentColor"/>
<circle cx="10" cy="13" r="1" fill="currentColor"/>
<circle cx="14" cy="13" r="1" fill="currentColor"/>
<circle cx="10" cy="17" r="1" fill="currentColor"/>
<circle cx="14" cy="17" r="1" fill="currentColor"/>
</svg>
