<svg width="24" height="24" viewBox="0 0 24 24" fill="none" xmlns="http://www.w3.org/2000/svg">
<path d="M12 2C13.1 2 14 2.9 14 4V6C14 7.1 13.1 8 12 8S10 7.1 10 6V4C10 2.9 10.9 2 12 2ZM12 10C14.21 10 16 8.21 16 6V4C16 1.79 14.21 0 12 0S8 1.79 8 4V6C8 8.21 9.79 10 12 10Z" fill="currentColor"/>
<path d="M6 12H18C19.1 12 20 12.9 20 14V20C20 21.1 19.1 22 18 22H6C4.9 22 4 21.1 4 20V14C4 12.9 4.9 12 6 12ZM6 14V20H18V14H6Z" fill="currentColor"/>
<path d="M8 16H16V18H8V16Z" fill="currentColor"/>
<circle cx="12" cy="12" r="3" fill="currentColor"/>
<path d="M12 9L13.5 10.5L12 12L10.5 10.5L12 9Z" fill="currentColor"/>
<path d="M15 12L13.5 13.5L12 12L13.5 10.5L15 12Z" fill="currentColor"/>
<path d="M12 15L10.5 13.5L12 12L13.5 13.5L12 15Z" fill="currentColor"/>
<path d="M9 12L10.5 10.5L12 12L10.5 13.5L9 12Z" fill="currentColor"/>
</svg>
