<?xml version="1.0" encoding="UTF-8"?>
<!DOCTYPE svg PUBLIC "-//W3C//DTD SVG 1.1//EN" "http://www.w3.org/Graphics/SVG/1.1/DTD/svg11.dtd">
<!-- Creator: CorelDRAW -->
<svg xmlns="http://www.w3.org/2000/svg" xml:space="preserve" width="3.3333mm" height="3.3334mm" version="1.1" style="shape-rendering:geometricPrecision; text-rendering:geometricPrecision; image-rendering:optimizeQuality; fill-rule:evenodd; clip-rule:evenodd"
viewBox="0 0 19.45 19.45"
 xmlns:xlink="http://www.w3.org/1999/xlink"
 xmlns:xodm="http://www.corel.com/coreldraw/odm/2003">
 <defs>
  <style type="text/css">
   <![CDATA[
    .fil0 {fill:#FEFEFE}
   ]]>
  </style>
 </defs>
 <g id="Слой_x0020_1">
  <metadata id="CorelCorpID_0Corel-Layer"/>
  <g id="_2738569839808">
   <path class="fil0" d="M9.72 0.62c-5.02,0 -9.1,4.09 -9.1,9.1 0,5.02 4.08,9.1 9.1,9.1 5.02,0 9.1,-4.08 9.1,-9.1 0,-5.02 -4.08,-9.1 -9.1,-9.1zm0 18.73c-5.31,0 -9.63,-4.32 -9.63,-9.63 0,-5.31 4.32,-9.63 9.63,-9.63 5.31,0 9.63,4.32 9.63,9.63 0,5.31 -4.32,9.63 -9.63,9.63z"/>
   <path class="fil0" d="M9.72 0.72c-4.96,0 -9,4.04 -9,9 0,4.97 4.04,9 9,9 4.97,0 9,-4.04 9,-9 0,-4.96 -4.04,-9 -9,-9zm0 18.2c-5.07,0 -9.2,-4.13 -9.2,-9.2 0,-5.07 4.13,-9.2 9.2,-9.2 5.07,0 9.2,4.13 9.2,9.2 0,5.07 -4.13,9.2 -9.2,9.2zm0 -18.73c-5.25,0 -9.53,4.27 -9.53,9.53 0,5.25 4.27,9.53 9.53,9.53 5.25,0 9.53,-4.27 9.53,-9.53 0,-5.25 -4.27,-9.53 -9.53,-9.53zm0 19.25c-5.36,0 -9.72,-4.36 -9.72,-9.72 0,-5.36 4.36,-9.72 9.72,-9.72 5.36,-0 9.72,4.36 9.72,9.72 0,5.36 -4.36,9.72 -9.72,9.72z"/>
   <path class="fil0" d="M9.69 19.25c-0.12,0 -0.24,-0.09 -0.26,-0.22 -0.03,-0.14 0.07,-0.28 0.21,-0.3 3.71,-0.64 6.5,-4.51 6.5,-9.01 0,-4.43 -2.63,-8.2 -6.26,-8.97 -0.14,-0.03 -0.23,-0.17 -0.2,-0.31 0.03,-0.14 0.17,-0.23 0.31,-0.2 3.87,0.81 6.68,4.8 6.68,9.48 0,4.75 -2.98,8.85 -6.94,9.53l-0.04 0z"/>
   <path class="fil0" d="M9.94 0.34l-0.09 0.03 -0.07 0.1 0.13 0.19c3.68,0.77 6.34,4.58 6.34,9.06 0,4.55 -2.83,8.47 -6.58,9.11l-0.11 0.07 -0.03 0.12c0.02,0.09 0.1,0.15 0.19,0.13 3.91,-0.67 6.85,-4.72 6.85,-9.43 0,-4.63 -2.78,-8.58 -6.6,-9.38l-0.03 -0zm-0.25 19.01c-0.18,0 -0.32,-0.13 -0.35,-0.3 -0.02,-0.09 0.01,-0.19 0.06,-0.27 0.06,-0.08 0.14,-0.13 0.23,-0.15 3.66,-0.63 6.42,-4.46 6.42,-8.91 0,-4.39 -2.6,-8.12 -6.19,-8.87 -0.19,-0.04 -0.32,-0.23 -0.28,-0.42 0.02,-0.1 0.08,-0.18 0.16,-0.23 0.08,-0.05 0.18,-0.07 0.27,-0.05 3.92,0.82 6.76,4.85 6.76,9.57 0,4.8 -3.02,8.94 -7.02,9.62l-0.06 0.01z"/>
   <path class="fil0" d="M9.72 19.25l-0.04 -0c-3.94,-0.68 -6.9,-4.77 -6.9,-9.53 0,-4.68 2.8,-8.66 6.65,-9.48 0.14,-0.03 0.28,0.06 0.31,0.2 0.03,0.14 -0.06,0.28 -0.2,0.31 -3.61,0.76 -6.23,4.53 -6.23,8.97 0,4.5 2.78,8.38 6.47,9.01 0.14,0.03 0.24,0.16 0.21,0.3 -0.02,0.13 -0.13,0.22 -0.26,0.22z"/>
   <path class="fil0" d="M9.48 0.34l-0.03 0c-3.81,0.8 -6.57,4.75 -6.57,9.38 0,4.71 2.93,8.76 6.82,9.43 0.11,0.02 0.17,-0.05 0.19,-0.13l-0.03 -0.12 -0.11 -0.07c-3.73,-0.64 -6.55,-4.56 -6.55,-9.11 0,-4.48 2.65,-8.29 6.31,-9.06l0.1 -0.07 0.02 -0.12 -0.16 -0.13zm0.24 19.01l-0.06 -0.01c-3.98,-0.68 -6.99,-4.82 -6.99,-9.62 0,-4.72 2.83,-8.75 6.73,-9.57 0.19,-0.04 0.39,0.08 0.43,0.28 0.04,0.19 -0.08,0.38 -0.28,0.42 -3.57,0.75 -6.16,4.48 -6.16,8.87 0,4.46 2.75,8.29 6.39,8.92 0.2,0.03 0.33,0.22 0.29,0.41 -0.03,0.17 -0.18,0.3 -0.35,0.3z"/>
   <path class="fil0" d="M9.72 6.24c-2.57,0 -4.99,-1 -6.8,-2.82l0.37 -0.37c1.72,1.72 4.01,2.67 6.44,2.67 2.46,0 4.77,-0.97 6.5,-2.73l0.37 0.37c-1.82,1.86 -4.26,2.89 -6.87,2.89z"/>
   <path class="fil0" d="M3.06 3.42c1.79,1.75 4.16,2.72 6.67,2.72 2.55,-0 4.93,-0.99 6.73,-2.79l-0.23 -0.23c-1.74,1.73 -4.04,2.69 -6.5,2.69 -2.42,0 -4.71,-0.93 -6.44,-2.63l-0.23 0.23zm6.67 2.92c-2.6,0 -5.04,-1.01 -6.87,-2.85l0 -0.14 0.37 -0.37 0.14 0c1.7,1.7 3.96,2.64 6.37,2.64 2.44,0 4.72,-0.96 6.43,-2.7l0.14 -0 0.37 0.37 0.03 0.07 -0.03 0.07c-1.84,1.88 -4.31,2.91 -6.94,2.91z"/>
   <path class="fil0" d="M3.22 16.46l-0.37 -0.37c1.83,-1.86 4.27,-2.89 6.87,-2.89 2.57,-0 4.99,1 6.81,2.82l-0.37 0.37c-1.72,-1.72 -4,-2.67 -6.44,-2.67 -2.46,0 -4.77,0.97 -6.5,2.73z"/>
   <path class="fil0" d="M2.99 16.1l0.23 0.23c1.74,-1.73 4.04,-2.69 6.5,-2.69 2.43,-0 4.71,0.93 6.44,2.63l0.23 -0.23c-1.79,-1.76 -4.16,-2.72 -6.67,-2.72 -2.55,-0 -4.93,0.99 -6.73,2.79zm0.23 0.46l-0.07 -0.03 -0.37 -0.37 -0 -0.14c1.84,-1.88 4.31,-2.92 6.94,-2.92 2.6,-0 5.04,1.01 6.88,2.85l0 0.14 -0.37 0.37 -0.14 0c-1.7,-1.7 -3.96,-2.64 -6.37,-2.64 -2.44,0 -4.72,0.96 -6.43,2.7l-0.07 0.03 -0 0z"/>
   <polygon class="fil0" points="19.09,9.98 0.36,9.98 0.36,9.46 19.09,9.46 "/>
   <path class="fil0" d="M0.46 9.89l18.53 0 0 -0.33 -18.53 0 0 0.33zm18.63 0.2l-18.73 0 -0.1 -0.1 0 -0.52 0.1 -0.1 18.73 0 0.1 0.1 0 0.52 -0.1 0.1z"/>
   <path class="fil0" d="M9.72 19.35c-0.14,0 -0.26,-0.12 -0.26,-0.26l0 -18.73c0,-0.14 0.12,-0.26 0.26,-0.26 0.14,0 0.26,0.12 0.26,0.26l0 18.73c0,0.14 -0.12,0.26 -0.26,0.26z"/>
   <path class="fil0" d="M9.72 0.2c-0.09,0 -0.16,0.07 -0.16,0.16l0 18.73c0,0.09 0.07,0.16 0.16,0.16 0.09,0 0.16,-0.07 0.16,-0.16l0 -18.73c0,-0.09 -0.07,-0.16 -0.16,-0.16zm0 19.25c-0.2,0 -0.36,-0.16 -0.36,-0.36l0 -18.73c0,-0.2 0.16,-0.36 0.36,-0.36 0.2,-0 0.36,0.16 0.36,0.36l0 18.73c0,0.2 -0.16,0.36 -0.36,0.36z"/>
  </g>
 </g>
</svg>
